<?xml version="1.0" standalone="no"?>
<!DOCTYPE svg PUBLIC "-//W3C//DTD SVG 20010904//EN"
 "http://www.w3.org/TR/2001/REC-SVG-20010904/DTD/svg10.dtd">
<svg version="1.0" xmlns="http://www.w3.org/2000/svg"
 width="2986.000000pt" height="2986.000000pt" viewBox="0 0 2986.000000 2986.000000"
 preserveAspectRatio="xMidYMid meet">
<metadata>
Created by potrace 1.11, written by Peter Selinger 2001-2013
</metadata>
<g transform="translate(0.000000,2986.000000) scale(0.100000,-0.100000)"
fill="#000000" stroke="none">
<path d="M15547 29854 c-1 -1 -110 -5 -242 -9 -132 -3 -262 -8 -290 -10 -114
-6 -267 -17 -302 -20 -21 -2 -78 -6 -128 -10 -49 -4 -103 -8 -120 -10 -16 -1
-64 -6 -105 -9 -41 -4 -86 -9 -100 -11 -14 -2 -50 -7 -80 -10 -30 -3 -89 -10
-130 -15 -41 -5 -97 -12 -125 -15 -67 -8 -246 -33 -320 -46 -33 -5 -73 -11
-90 -13 -29 -4 -138 -22 -180 -30 -11 -2 -40 -7 -65 -11 -146 -24 -585 -110
-670 -132 -14 -3 -32 -7 -41 -9 -18 -4 -287 -63 -309 -69 -8 -2 -91 -22 -185
-44 -93 -22 -235 -57 -315 -76 -80 -20 -171 -43 -203 -51 -149 -37 -665 -180
-887 -246 -74 -22 -142 -41 -150 -43 -33 -7 -738 -232 -790 -252 -8 -3 -19 -7
-25 -9 -5 -1 -62 -21 -125 -44 -63 -23 -133 -47 -155 -55 -309 -102 -1045
-395 -1455 -580 -58 -26 -125 -56 -150 -67 -236 -104 -862 -419 -1125 -565
-237 -132 -487 -279 -660 -388 -77 -48 -149 -93 -160 -99 -59 -34 -565 -380
-655 -448 -14 -10 -86 -64 -160 -120 -179 -134 -438 -341 -516 -413 -6 -5 -36
-30 -65 -55 -69 -58 -243 -214 -379 -340 -94 -86 -327 -320 -445 -445 -190
-202 -211 -225 -449 -505 -11 -14 -48 -59 -81 -100 -33 -41 -62 -77 -66 -80
-3 -3 -61 -79 -130 -170 -797 -1050 -1365 -2201 -1734 -3510 -80 -282 -173
-673 -220 -920 -3 -14 -14 -70 -25 -125 -11 -55 -22 -116 -25 -135 -3 -19 -8
-42 -10 -50 -2 -8 -6 -33 -10 -55 -3 -22 -10 -67 -15 -100 -5 -33 -12 -78 -15
-100 -3 -23 -7 -50 -9 -60 -2 -11 -7 -42 -10 -68 -4 -27 -9 -58 -12 -70 -2
-12 -6 -46 -9 -77 -3 -31 -7 -65 -9 -77 -3 -12 -7 -50 -11 -85 -3 -35 -8 -70
-10 -78 -3 -14 -7 -44 -20 -180 -3 -30 -8 -75 -10 -100 -5 -46 -9 -91 -20
-215 -10 -128 -14 -179 -20 -280 -3 -55 -8 -125 -10 -155 -15 -194 -20 -458
-20 -990 0 -525 4 -754 20 -1040 1 -36 6 -126 10 -200 4 -74 8 -151 10 -170 2
-19 7 -82 10 -140 4 -58 9 -121 10 -140 2 -19 7 -78 10 -130 4 -52 8 -108 11
-125 2 -16 6 -64 9 -105 5 -71 11 -131 20 -210 2 -19 7 -66 10 -105 4 -38 8
-81 10 -95 2 -14 6 -56 10 -95 3 -38 8 -77 10 -85 2 -8 7 -51 10 -95 3 -44 8
-87 10 -95 2 -8 6 -44 10 -80 4 -36 8 -76 10 -90 6 -49 15 -121 20 -167 5 -44
11 -91 20 -153 2 -14 7 -48 10 -76 3 -28 7 -60 10 -72 2 -11 6 -45 9 -74 4
-29 8 -64 10 -78 3 -14 7 -47 10 -75 4 -27 8 -61 11 -75 4 -26 9 -58 20 -145
3 -27 10 -72 15 -100 5 -27 12 -72 16 -100 3 -27 8 -60 9 -73 2 -12 8 -53 14
-90 11 -72 15 -98 31 -207 6 -38 12 -77 15 -85 2 -8 6 -37 10 -65 3 -27 8 -59
10 -70 3 -11 7 -38 10 -60 3 -22 21 -137 41 -255 19 -118 37 -228 40 -245 2
-16 9 -52 14 -80 5 -27 12 -70 15 -95 4 -24 8 -47 10 -50 2 -3 6 -30 10 -60 3
-30 8 -62 11 -71 3 -10 6 -30 9 -45 2 -16 15 -99 30 -184 15 -85 29 -168 31
-185 3 -16 9 -50 14 -75 5 -25 12 -61 14 -80 3 -19 10 -57 15 -85 5 -27 12
-70 16 -95 3 -25 8 -52 10 -60 2 -8 7 -35 10 -60 3 -25 10 -61 15 -80 5 -19
11 -53 14 -75 5 -38 11 -69 21 -125 3 -14 7 -43 11 -65 3 -22 7 -47 9 -55 2
-8 7 -35 10 -60 3 -25 8 -52 10 -60 2 -8 7 -28 9 -45 9 -51 75 -441 106 -620
16 -93 32 -190 35 -215 3 -25 8 -52 10 -60 3 -8 7 -37 10 -64 4 -28 8 -52 10
-56 3 -5 19 -109 30 -197 2 -12 6 -34 9 -50 3 -15 8 -48 11 -73 3 -25 8 -52
10 -60 2 -8 7 -35 10 -60 3 -25 8 -56 10 -70 2 -14 9 -61 15 -105 7 -44 13
-87 15 -95 1 -8 6 -40 10 -70 3 -30 8 -66 10 -80 3 -14 7 -45 10 -70 3 -25 7
-52 9 -60 3 -8 7 -42 11 -75 6 -57 9 -80 19 -157 3 -18 8 -56 11 -84 3 -28 7
-59 9 -70 2 -10 7 -38 11 -62 26 -161 144 -323 296 -410 173 -99 387 -103 574
-11 95 46 218 168 261 259 60 124 81 251 63 374 -4 28 -10 71 -13 96 -9 74
-36 292 -41 325 -3 16 -16 109 -30 205 -14 96 -27 186 -29 200 -2 14 -7 47
-11 73 -4 27 -8 58 -11 70 -2 12 -6 39 -9 62 -3 22 -8 51 -10 65 -2 14 -7 43
-10 65 -6 44 -11 73 -25 155 -5 30 -12 73 -15 95 -3 22 -10 63 -15 90 -6 28
-12 68 -16 90 -10 71 -24 159 -29 185 -3 14 -7 41 -10 60 -3 19 -7 48 -11 63
-3 16 -7 38 -9 50 -1 12 -10 65 -19 117 -10 52 -19 109 -22 125 -3 17 -16 95
-30 175 -28 161 -29 168 -39 225 -3 22 -10 60 -15 85 -5 25 -11 59 -14 75 -6
46 -25 157 -31 185 -3 14 -8 39 -10 55 -3 17 -10 55 -15 85 -5 30 -12 73 -15
95 -4 22 -8 47 -10 55 -2 8 -7 38 -11 65 -3 28 -8 52 -9 55 -2 3 -6 24 -9 46
-4 22 -9 51 -11 64 -3 14 -8 41 -11 60 -2 19 -7 46 -10 60 -7 36 -10 55 -44
260 -17 102 -33 196 -35 210 -6 32 -55 327 -60 360 -4 24 -21 128 -30 180 -3
14 -11 68 -20 120 -8 52 -17 111 -20 130 -15 94 -26 168 -30 195 -5 37 -44
300 -50 335 -11 66 -15 93 -31 205 -9 66 -18 131 -19 145 -1 14 -5 45 -10 70
-4 25 -9 58 -10 75 -2 16 -6 46 -9 65 -3 19 -10 73 -16 120 -6 47 -13 101 -15
120 -7 52 -45 368 -51 420 -2 25 -7 61 -9 80 -11 82 -16 131 -30 288 -3 31 -8
73 -10 92 -6 46 -13 118 -20 205 -4 39 -8 84 -10 100 -4 27 -12 134 -21 260
-2 28 -5 72 -8 99 -3 28 -8 104 -11 170 -4 67 -8 137 -10 156 -2 19 -7 96 -10
170 -4 74 -8 162 -10 195 -32 512 -21 1560 20 2075 3 30 7 87 10 125 3 39 7
86 10 105 2 19 7 69 10 111 3 42 7 85 9 95 2 11 7 55 11 98 4 43 8 86 10 95 1
9 6 45 10 81 4 36 9 74 11 85 2 11 6 43 9 70 3 28 12 91 20 140 8 50 17 110
21 135 4 36 37 218 80 450 35 188 143 631 215 885 78 273 262 809 334 970 7
17 39 91 70 165 194 461 476 985 753 1403 126 190 396 566 422 587 3 3 28 34
55 70 27 36 54 70 60 76 5 6 26 31 46 55 49 59 99 119 126 149 12 14 31 36 42
49 231 269 561 598 925 922 54 48 242 206 291 244 21 17 72 57 114 91 121 96
344 262 496 369 164 115 463 315 472 315 3 0 20 11 37 23 39 30 336 209 521
314 686 391 1494 765 2320 1075 154 58 509 187 530 192 6 2 17 6 25 9 20 7
439 144 600 195 69 22 229 70 355 107 127 36 241 70 255 75 68 24 1042 276
1136 294 16 3 108 24 204 46 96 23 189 44 205 46 17 3 36 7 44 10 13 4 371 79
431 90 14 2 48 9 75 15 28 5 66 12 85 15 43 6 59 9 135 23 33 6 76 13 95 16
19 3 46 7 60 10 14 2 43 7 65 10 23 3 50 7 61 9 12 2 45 7 75 11 30 3 79 10
109 15 30 5 80 12 110 15 30 3 71 8 90 10 39 6 85 11 175 20 33 3 76 8 95 11
32 4 60 6 203 19 28 2 90 7 137 10 47 3 108 8 135 10 267 20 1039 27 1335 12
234 -12 299 -16 353 -21 29 -3 88 -8 132 -11 76 -6 103 -9 193 -20 20 -2 64
-7 97 -10 52 -5 241 -29 315 -40 14 -2 48 -6 75 -10 28 -3 57 -8 65 -10 8 -2
33 -6 55 -10 42 -6 193 -32 235 -40 13 -2 42 -7 64 -11 22 -3 43 -7 46 -9 3
-2 22 -6 42 -9 31 -5 326 -68 378 -81 8 -2 56 -13 105 -25 50 -11 149 -37 220
-56 72 -20 137 -37 145 -39 26 -6 210 -62 315 -94 399 -125 937 -333 1268
-490 60 -28 111 -51 113 -51 7 0 381 -188 494 -248 94 -50 209 -114 355 -197
133 -75 353 -213 600 -374 63 -41 316 -214 340 -233 6 -4 94 -71 197 -147 218
-163 511 -396 634 -506 6 -5 37 -32 69 -60 32 -27 63 -54 69 -60 6 -5 54 -48
106 -95 162 -145 227 -207 505 -485 277 -277 328 -331 475 -495 47 -52 87 -97
90 -100 10 -9 145 -166 190 -220 25 -29 72 -85 105 -125 33 -39 103 -124 155
-190 52 -66 97 -122 100 -125 3 -3 25 -32 50 -65 25 -33 47 -62 50 -65 4 -4
102 -136 270 -365 284 -386 692 -1034 975 -1550 101 -184 358 -690 430 -845
138 -300 145 -316 215 -480 34 -80 68 -158 75 -175 72 -159 312 -804 403
-1085 104 -319 239 -778 267 -906 2 -10 18 -75 35 -144 17 -69 33 -132 35
-140 58 -261 114 -525 131 -625 2 -16 9 -55 14 -85 5 -30 12 -68 14 -85 3 -16
12 -69 20 -116 8 -48 18 -108 21 -135 28 -226 166 -419 360 -505 45 -20 69
-28 145 -46 33 -7 165 -7 214 1 48 8 159 52 206 81 103 65 199 180 248 298 23
56 26 77 28 207 1 126 -3 172 -32 345 -19 110 -36 213 -39 228 -2 16 -6 40
-10 55 -10 48 -15 76 -21 112 -3 19 -7 43 -10 52 -6 21 -12 52 -20 102 -3 22
-8 44 -10 48 -3 4 -7 20 -9 35 -6 40 -31 153 -66 300 -17 70 -32 135 -34 143
-2 8 -13 53 -24 100 -211 855 -541 1798 -929 2660 -165 365 -378 797 -539
1090 -20 36 -53 98 -75 139 -21 40 -50 91 -64 112 -13 21 -24 41 -24 43 0 7
-197 342 -298 506 -134 217 -258 410 -376 583 -56 82 -105 156 -111 165 -5 8
-15 23 -22 31 -7 9 -58 81 -114 161 -87 123 -368 500 -421 565 -9 11 -75 93
-147 182 -71 89 -139 172 -150 185 -46 55 -277 324 -291 339 -8 9 -46 51 -85
94 -364 407 -845 885 -1211 1202 -12 10 -48 41 -80 70 -188 165 -612 507 -778
628 -16 11 -56 41 -89 66 -52 38 -369 261 -419 294 -8 6 -34 23 -57 38 -143
95 -385 249 -459 292 -9 6 -66 40 -127 76 -60 36 -141 83 -180 104 -38 20 -74
41 -80 45 -46 35 -626 332 -852 436 -675 311 -1440 582 -2113 749 -240 60
-718 163 -830 180 -25 4 -67 11 -95 16 -27 5 -77 14 -110 19 -33 5 -73 12 -90
14 -16 3 -46 8 -65 11 -19 3 -53 8 -75 11 -22 3 -51 7 -65 9 -135 17 -243 31
-330 40 -30 3 -66 8 -80 10 -14 2 -56 6 -95 10 -38 3 -95 8 -125 11 -30 2 -84
6 -120 9 -36 2 -105 7 -155 10 -49 3 -115 8 -145 10 -135 10 -885 25 -893 19z"/>
<path d="M15298 27325 c-2 -2 -68 -6 -148 -9 -138 -6 -192 -9 -340 -21 -101
-8 -167 -15 -270 -25 -52 -6 -117 -13 -145 -16 -27 -2 -61 -6 -75 -9 -26 -4
-51 -7 -190 -25 -47 -6 -95 -13 -107 -15 -12 -2 -84 -13 -160 -25 -111 -17
-342 -56 -568 -96 -23 -4 -441 -86 -560 -110 -11 -2 -42 -8 -70 -14 -27 -5
-61 -12 -75 -15 -14 -3 -36 -8 -50 -11 -14 -3 -33 -7 -42 -10 -10 -3 -30 -8
-45 -10 -16 -3 -68 -14 -118 -25 -49 -12 -101 -23 -115 -25 -14 -3 -144 -34
-290 -70 -146 -36 -274 -67 -285 -70 -11 -2 -69 -18 -130 -34 -60 -17 -118
-33 -128 -35 -32 -7 -311 -85 -392 -110 -572 -173 -811 -252 -1240 -412 -126
-47 -234 -90 -240 -94 -5 -5 -15 -9 -21 -9 -13 0 -402 -160 -512 -211 -35 -16
-65 -29 -67 -29 -5 0 -62 -26 -315 -145 -260 -123 -716 -362 -867 -456 -34
-22 -65 -39 -67 -39 -16 0 -438 -268 -630 -400 -157 -108 -325 -228 -336 -240
-3 -3 -48 -38 -101 -77 -53 -40 -128 -97 -165 -128 -38 -31 -76 -61 -84 -68
-67 -55 -155 -129 -209 -176 -193 -170 -295 -267 -460 -432 -198 -198 -233
-235 -446 -478 -16 -18 -35 -39 -40 -45 -6 -6 -55 -67 -110 -136 -55 -69 -102
-127 -105 -130 -24 -22 -243 -329 -350 -489 -239 -359 -501 -836 -675 -1226
-146 -331 -315 -797 -419 -1155 -42 -145 -133 -495 -142 -550 -3 -14 -9 -41
-14 -60 -11 -42 -86 -419 -94 -475 -7 -41 -16 -95 -22 -130 -5 -24 -42 -275
-49 -330 -3 -22 -7 -56 -10 -75 -9 -65 -14 -115 -20 -170 -3 -30 -7 -66 -10
-80 -2 -14 -7 -59 -11 -100 -3 -41 -8 -88 -9 -105 -2 -16 -6 -68 -10 -115 -3
-47 -8 -101 -10 -120 -2 -19 -7 -89 -10 -155 -4 -66 -8 -145 -10 -175 -22
-330 -21 -1171 0 -1575 3 -38 7 -122 10 -185 4 -63 8 -137 10 -165 9 -143 17
-254 20 -290 2 -22 6 -76 10 -120 3 -44 8 -96 10 -115 2 -19 7 -75 11 -125 3
-49 8 -98 9 -107 2 -9 6 -48 10 -85 3 -37 10 -106 16 -153 5 -47 11 -105 13
-130 2 -25 7 -61 10 -80 3 -19 8 -60 11 -90 3 -30 7 -68 9 -85 2 -16 7 -55 10
-86 4 -31 8 -65 10 -75 2 -11 7 -46 10 -79 6 -57 12 -101 21 -162 2 -15 13
-97 25 -181 11 -85 22 -164 25 -175 2 -12 6 -40 9 -62 3 -22 7 -57 11 -77 3
-21 7 -54 10 -74 3 -21 7 -46 10 -58 3 -12 7 -39 9 -61 5 -46 10 -77 36 -235
10 -63 21 -133 25 -155 3 -22 16 -105 30 -185 13 -80 26 -161 29 -180 3 -19 8
-45 10 -56 2 -12 7 -37 10 -55 11 -68 56 -325 60 -345 2 -12 7 -39 10 -60 4
-22 18 -102 32 -179 15 -77 28 -151 30 -165 3 -14 9 -47 14 -75 5 -27 11 -61
14 -75 2 -14 11 -65 21 -115 9 -49 18 -99 20 -110 1 -11 16 -92 33 -180 17
-88 36 -187 42 -220 5 -33 12 -71 15 -85 3 -14 10 -52 15 -85 6 -33 15 -80 20
-105 5 -25 18 -94 30 -155 11 -60 35 -193 54 -295 19 -102 37 -197 40 -213 17
-94 27 -145 31 -167 3 -14 8 -38 10 -55 3 -16 11 -57 17 -90 6 -33 12 -69 13
-80 2 -11 10 -58 19 -105 8 -47 18 -98 21 -115 3 -16 21 -122 40 -235 20 -113
38 -216 40 -230 2 -14 7 -43 10 -65 4 -22 13 -78 21 -125 8 -47 17 -101 20
-120 3 -19 11 -75 19 -125 8 -49 16 -110 20 -135 3 -25 8 -56 11 -70 2 -14 7
-43 10 -65 3 -22 7 -49 9 -60 1 -11 8 -60 14 -110 7 -49 14 -101 16 -115 7
-46 15 -105 19 -145 3 -22 10 -76 15 -120 12 -87 21 -170 26 -225 4 -44 14
-141 20 -200 12 -109 29 -336 42 -533 15 -246 7 -1018 -12 -1115 -1 -9 -6 -46
-10 -82 -13 -123 -30 -240 -51 -350 -22 -111 -23 -115 -45 -203 -11 -45 -22
-120 -25 -167 -20 -297 185 -561 487 -629 58 -13 224 -5 283 13 45 15 129 52
151 68 137 98 209 191 255 328 19 54 73 281 85 350 3 19 12 69 20 110 7 42 21
132 30 200 8 69 17 139 20 155 2 17 6 64 10 105 3 41 8 95 10 120 24 261 24
891 1 1255 -11 159 -23 314 -31 395 -3 25 -7 74 -11 110 -3 36 -7 81 -10 100
-2 19 -6 62 -9 95 -3 33 -8 76 -10 95 -3 19 -7 55 -10 80 -6 52 -45 356 -49
385 -2 11 -6 45 -10 75 -4 30 -9 66 -11 80 -2 14 -13 86 -24 160 -30 204 -31
209 -46 300 -8 47 -17 103 -20 125 -4 22 -8 47 -10 55 -2 8 -7 35 -10 60 -7
53 -69 420 -90 535 -12 65 -46 253 -69 385 -5 31 -54 296 -61 330 -3 14 -9 50
-15 80 -6 30 -12 66 -15 80 -6 30 -62 334 -75 405 -5 28 -12 64 -15 80 -3 17
-13 68 -21 115 -9 47 -18 94 -20 105 -2 11 -11 56 -19 100 -8 44 -19 105 -25
135 -6 30 -13 71 -16 90 -3 19 -7 42 -10 52 -3 9 -9 40 -14 70 -5 29 -12 67
-15 83 -7 35 -55 298 -61 335 -3 14 -11 61 -19 105 -8 44 -17 96 -21 115 -3
19 -12 71 -20 115 -8 44 -21 118 -29 165 -8 47 -17 94 -19 105 -2 11 -7 40
-11 65 -4 25 -9 54 -11 65 -2 10 -6 35 -9 55 -5 35 -10 61 -20 110 -4 23 -9
50 -19 118 -3 15 -11 70 -20 122 -8 52 -18 115 -21 140 -3 25 -8 56 -10 70
-16 78 -13 60 -69 440 -14 91 -27 190 -31 220 -3 30 -8 62 -10 70 -2 8 -6 42
-10 74 -3 32 -7 62 -9 65 -2 3 -7 38 -10 76 -4 39 -9 77 -11 85 -2 8 -7 42
-10 75 -3 33 -8 74 -10 90 -9 65 -25 193 -30 243 -7 70 -15 141 -19 177 -2 17
-7 66 -11 110 -4 44 -8 91 -10 105 -2 14 -6 53 -9 88 -3 34 -9 90 -12 125 -4
34 -8 80 -9 102 -4 54 -16 210 -20 265 -8 100 -20 302 -32 550 -10 211 -10
1160 0 1350 11 206 16 277 22 345 3 33 7 96 10 140 3 44 8 91 10 105 2 14 7
59 10 100 3 41 8 86 10 100 2 14 7 50 10 80 3 30 8 66 10 80 2 14 7 50 10 80
3 30 7 62 10 70 2 8 6 38 10 65 3 28 10 75 15 105 5 30 12 71 15 90 18 113 71
383 97 495 16 72 32 141 34 155 3 14 9 39 15 56 5 17 11 40 13 50 30 147 189
661 270 869 128 326 158 396 297 681 137 281 290 545 487 838 80 119 243 344
277 382 6 6 24 29 40 50 50 65 255 305 314 369 31 33 139 143 241 245 204 203
260 256 445 413 44 37 89 76 100 86 11 9 52 42 90 72 39 29 72 56 75 60 3 3
48 38 100 77 52 39 100 75 105 79 6 5 33 24 60 43 28 19 52 37 55 40 8 9 163
114 302 206 308 202 648 398 1017 582 319 159 411 202 691 322 438 187 1098
428 1496 546 49 14 118 35 154 46 234 71 992 273 1094 292 11 2 50 11 86 19
120 29 286 66 321 72 19 3 50 10 69 15 39 10 343 72 415 84 41 7 252 47 295
56 25 6 72 14 105 19 33 6 87 15 120 21 33 6 75 13 94 16 18 3 41 7 51 9 10 2
67 11 126 20 60 9 132 20 159 25 28 5 73 12 100 15 61 7 110 14 150 20 17 2
50 7 75 10 25 2 65 7 90 10 25 3 70 7 100 10 30 3 78 7 105 10 278 26 549 39
860 39 222 0 565 -10 620 -18 17 -3 68 -7 115 -10 127 -9 245 -20 330 -31 19
-3 55 -7 80 -10 25 -3 56 -7 70 -10 14 -2 45 -7 70 -10 25 -3 56 -7 70 -9 14
-3 81 -14 150 -26 69 -12 159 -28 200 -37 41 -8 84 -16 95 -19 180 -35 566
-135 755 -196 270 -86 569 -195 698 -254 29 -13 55 -24 59 -24 13 0 311 -139
496 -231 745 -373 1472 -884 2146 -1508 269 -249 662 -655 872 -902 26 -30 76
-88 111 -129 92 -107 344 -420 414 -515 32 -44 61 -82 65 -85 16 -14 252 -342
363 -504 37 -54 76 -111 86 -125 37 -52 211 -323 308 -477 94 -151 362 -601
362 -609 0 -2 24 -45 53 -97 188 -327 510 -965 702 -1388 53 -118 108 -240
122 -270 41 -90 210 -493 275 -655 285 -712 539 -1450 769 -2235 45 -156 116
-413 124 -450 2 -8 14 -55 28 -105 27 -99 76 -294 84 -334 2 -13 6 -27 8 -31
4 -6 100 -416 115 -490 10 -49 12 -60 30 -135 13 -59 70 -329 76 -365 2 -14 7
-36 9 -50 3 -14 7 -36 10 -50 3 -14 10 -50 16 -80 6 -30 13 -68 15 -85 4 -25
21 -113 29 -150 1 -5 5 -32 9 -60 4 -27 10 -61 12 -75 3 -14 6 -34 8 -45 2
-11 6 -33 9 -50 8 -41 19 -109 32 -205 4 -30 8 -57 10 -60 2 -3 6 -33 10 -65
3 -33 8 -67 10 -75 2 -8 7 -37 10 -65 3 -27 8 -59 10 -70 2 -11 7 -47 10 -80
3 -33 8 -71 10 -85 3 -14 7 -50 10 -80 3 -30 8 -64 10 -75 2 -11 7 -58 11
-105 3 -47 8 -87 9 -90 2 -3 6 -41 10 -85 3 -44 8 -94 10 -111 3 -17 7 -69 10
-115 4 -46 8 -111 10 -144 50 -707 28 -1295 -60 -1600 -51 -177 -55 -288 -15
-417 61 -198 250 -370 451 -412 279 -57 563 88 679 348 24 55 72 213 84 276 2
14 9 46 15 71 6 25 12 61 15 80 2 19 9 63 15 99 5 36 13 92 16 125 3 33 8 74
10 90 27 217 27 1133 0 1405 -2 19 -6 73 -10 120 -9 121 -23 290 -30 350 -1
14 -6 57 -9 95 -4 39 -9 81 -11 95 -3 14 -7 53 -10 88 -4 35 -8 72 -10 82 -2
10 -6 47 -10 81 -4 35 -8 66 -10 69 -2 3 -6 35 -9 72 -4 37 -9 77 -11 89 -5
24 -11 71 -20 142 -3 23 -8 54 -11 69 -3 15 -7 39 -9 55 -2 15 -6 42 -8 58 -3
17 -11 64 -17 105 -6 41 -14 86 -16 100 -2 14 -15 88 -28 165 -14 77 -27 153
-30 168 -18 101 -59 313 -71 372 -8 39 -17 81 -19 95 -3 14 -19 93 -36 175
-18 83 -33 157 -35 165 -69 327 -278 1155 -379 1495 -13 44 -27 94 -31 110 -5
17 -9 35 -11 40 -44 164 -327 1030 -437 1335 -79 220 -165 454 -176 480 -5 14
-35 90 -66 170 -59 152 -167 422 -191 478 -24 55 -40 93 -84 197 -46 110 -43
103 -128 295 -66 150 -85 192 -149 330 -24 52 -63 135 -86 185 -47 103 -369
746 -441 880 -39 73 -194 353 -276 500 -57 101 -267 453 -346 579 -52 81 -94
150 -94 153 0 2 -4 9 -10 16 -5 7 -94 140 -199 297 -240 362 -432 629 -665
928 -78 100 -338 420 -389 479 -13 15 -55 64 -93 108 -38 44 -85 98 -105 120
-20 22 -62 69 -94 105 -150 167 -622 650 -699 715 -7 6 -43 39 -81 75 -101 94
-229 209 -310 276 -38 32 -72 61 -75 64 -5 6 -156 130 -188 155 -7 5 -21 17
-30 26 -34 32 -331 258 -467 355 -272 196 -637 432 -875 567 -19 11 -71 40
-115 65 -130 74 -269 147 -450 236 -151 74 -199 97 -320 151 -123 56 -248 108
-360 151 -49 19 -99 39 -110 44 -130 62 -820 281 -1024 326 -35 8 -66 16 -70
19 -4 2 -18 6 -32 9 -13 2 -73 16 -134 30 -60 14 -121 27 -135 30 -14 2 -69
14 -124 25 -112 24 -300 57 -372 66 -27 4 -56 8 -64 10 -20 6 -47 10 -207 31
-18 2 -48 6 -65 8 -18 3 -60 8 -93 11 -33 3 -76 8 -95 10 -19 2 -66 7 -105 10
-38 3 -90 8 -115 10 -25 2 -83 7 -130 10 -47 3 -114 8 -150 11 -72 6 -917 14
-922 9z"/>
<path d="M14937 24874 c-1 -1 -90 -4 -197 -8 -107 -4 -213 -8 -235 -10 -22 -2
-80 -6 -130 -10 -49 -4 -101 -9 -115 -11 -52 -7 -117 -15 -170 -20 -30 -3 -84
-11 -120 -16 -36 -6 -76 -12 -90 -14 -83 -12 -210 -34 -290 -50 -14 -3 -36 -7
-50 -10 -14 -2 -77 -16 -140 -31 -63 -14 -126 -28 -140 -31 -50 -10 -357 -95
-455 -125 -55 -17 -100 -30 -100 -29 0 1 -99 -33 -220 -75 -121 -41 -238 -82
-260 -89 -302 -103 -963 -363 -1210 -476 -33 -15 -107 -48 -165 -74 -534 -239
-1161 -573 -1595 -850 -95 -61 -319 -208 -330 -217 -5 -5 -68 -49 -140 -100
-118 -82 -377 -276 -436 -326 -13 -11 -69 -57 -124 -102 -474 -391 -960 -897
-1278 -1331 -9 -13 -40 -55 -69 -94 -345 -472 -681 -1107 -884 -1674 -53 -146
-139 -415 -149 -466 -2 -5 -12 -41 -23 -80 -75 -255 -166 -709 -207 -1035 -20
-163 -23 -183 -30 -260 -4 -36 -8 -76 -10 -90 -4 -23 -13 -140 -20 -250 -26
-386 -26 -1125 0 -1425 1 -22 6 -89 10 -150 3 -60 8 -126 10 -145 3 -35 14
-164 20 -230 5 -57 16 -163 20 -195 3 -16 9 -73 15 -125 10 -92 14 -126 25
-220 6 -42 9 -67 20 -148 3 -18 7 -54 10 -80 3 -26 10 -72 15 -102 5 -30 12
-75 15 -100 3 -25 10 -70 15 -100 5 -30 12 -73 15 -95 4 -22 9 -53 11 -70 3
-16 7 -45 10 -64 2 -19 13 -86 24 -150 12 -64 30 -168 41 -231 11 -63 24 -135
29 -160 5 -25 12 -61 15 -80 4 -19 15 -82 27 -140 11 -58 22 -116 24 -130 3
-14 16 -79 29 -145 13 -66 26 -133 29 -150 3 -16 15 -73 26 -125 11 -52 22
-106 25 -120 6 -33 49 -241 75 -360 11 -52 23 -111 26 -130 3 -19 8 -38 10
-41 2 -3 6 -21 9 -40 3 -19 19 -92 35 -164 16 -71 36 -166 45 -210 10 -44 18
-87 20 -95 2 -8 29 -132 60 -275 53 -241 77 -356 141 -655 13 -63 33 -158 44
-210 11 -52 23 -107 25 -123 3 -15 12 -60 21 -100 8 -39 18 -83 20 -97 3 -14
16 -81 30 -150 14 -69 28 -136 30 -150 3 -14 14 -72 25 -130 29 -150 73 -397
108 -600 28 -165 35 -206 47 -290 3 -19 11 -75 19 -125 8 -49 16 -112 19 -140
4 -27 8 -59 10 -70 2 -12 7 -48 11 -80 4 -33 9 -68 11 -79 2 -10 6 -44 9 -75
3 -31 8 -67 10 -81 3 -14 7 -54 10 -90 4 -36 8 -81 11 -100 9 -81 24 -247 39
-455 27 -359 27 -1041 0 -1315 -2 -25 -6 -76 -9 -115 -3 -38 -8 -81 -10 -95
-3 -14 -8 -52 -11 -85 -5 -53 -15 -124 -31 -220 -105 -652 -303 -1212 -614
-1739 -119 -202 -131 -237 -136 -388 -6 -175 49 -310 177 -439 179 -181 422
-228 665 -131 102 41 200 125 272 232 93 139 320 565 382 715 4 11 15 36 23
55 172 398 329 927 402 1355 4 22 9 49 11 60 12 67 35 228 49 335 21 171 23
194 30 280 4 41 8 91 10 110 26 275 26 1315 -1 1454 -2 11 -6 63 -9 116 -3 52
-7 111 -9 130 -3 19 -7 69 -11 110 -4 41 -8 91 -10 110 -2 19 -7 67 -11 105
-3 39 -8 78 -9 87 -2 9 -7 48 -10 85 -4 37 -9 76 -11 87 -2 10 -6 44 -9 75 -8
67 -12 97 -30 221 -2 14 -7 48 -10 75 -3 28 -8 61 -11 75 -2 14 -7 43 -9 65
-3 22 -7 47 -10 55 -2 8 -7 40 -10 70 -4 30 -11 78 -16 105 -5 28 -12 66 -15
85 -7 49 -34 210 -40 240 -8 40 -45 252 -49 280 -2 14 -17 93 -34 175 -16 83
-32 168 -37 190 -4 22 -8 45 -9 50 -2 6 -17 80 -34 166 -17 85 -33 164 -35
175 -3 10 -14 66 -26 124 -12 58 -24 114 -26 125 -3 11 -11 49 -18 85 -49 237
-77 367 -82 382 -3 10 -8 30 -10 45 -3 15 -12 59 -20 98 -16 72 -18 82 -28
125 -17 78 -59 269 -63 290 -2 14 -18 86 -34 160 -16 74 -32 151 -35 170 -3
19 -8 38 -10 41 -2 3 -6 19 -8 35 -3 16 -8 38 -10 49 -18 83 -78 364 -81 380
-3 11 -16 74 -29 140 -14 66 -27 131 -30 145 -3 14 -21 104 -40 200 -19 96
-37 186 -39 200 -3 14 -12 59 -20 100 -9 41 -19 91 -22 110 -3 19 -10 55 -15
80 -5 25 -12 59 -14 75 -3 17 -9 55 -15 85 -11 59 -76 432 -85 490 -16 99 -58
370 -67 438 -5 42 -12 88 -14 102 -9 58 -28 213 -51 410 -3 25 -7 61 -10 80
-5 43 -12 113 -19 200 -3 36 -7 81 -10 100 -2 19 -7 76 -10 125 -3 50 -8 110
-10 135 -5 53 -17 280 -21 395 -4 124 -4 659 1 760 8 179 19 349 30 450 2 22
7 72 11 110 3 39 8 77 9 85 1 8 6 44 10 80 4 36 9 74 11 84 2 11 8 56 14 100
9 66 31 185 75 409 3 15 57 236 70 287 37 141 148 488 185 575 5 11 36 86 69
168 100 244 300 632 415 807 112 170 163 246 173 260 6 8 52 70 101 136 82
111 109 145 137 178 6 6 32 38 59 71 28 33 57 67 65 76 9 9 36 41 61 70 60 72
447 459 534 534 38 33 74 65 80 70 6 6 38 32 71 60 33 27 62 52 65 55 3 3 25
21 50 40 25 19 47 37 50 40 23 24 340 261 460 343 298 203 644 416 905 557 44
23 107 57 140 75 225 122 648 324 945 452 57 25 122 53 145 63 22 10 110 46
195 80 85 33 164 65 175 70 137 65 1016 371 1224 426 99 26 254 66 286 73 64
14 337 70 370 75 46 8 155 24 205 31 25 3 56 8 70 10 39 6 163 19 285 30 267
23 802 23 971 1 17 -3 68 -7 114 -10 46 -4 93 -8 104 -11 12 -2 48 -7 81 -10
33 -4 69 -8 80 -10 11 -3 37 -7 58 -10 93 -13 117 -17 187 -31 41 -8 86 -16
100 -19 26 -5 110 -22 145 -30 389 -83 908 -260 1330 -453 110 -51 416 -206
495 -252 36 -20 92 -52 125 -70 114 -63 391 -239 560 -356 333 -230 702 -524
980 -779 50 -46 104 -95 120 -110 116 -106 500 -495 630 -640 44 -48 85 -93
90 -99 6 -6 39 -45 75 -86 36 -41 67 -77 70 -80 4 -4 75 -87 152 -178 42 -50
289 -363 367 -465 82 -108 323 -443 416 -579 152 -222 458 -706 537 -847 11
-20 51 -88 88 -151 67 -116 92 -160 158 -280 19 -36 38 -69 42 -75 12 -16 262
-491 277 -525 3 -8 51 -107 106 -220 243 -499 482 -1060 694 -1625 41 -110 76
-204 78 -210 1 -5 7 -23 14 -39 16 -40 232 -684 274 -821 49 -157 123 -406
198 -670 50 -177 185 -718 224 -895 2 -8 10 -45 19 -81 63 -269 202 -976 221
-1126 2 -12 6 -34 9 -50 3 -15 8 -46 12 -68 3 -22 12 -78 20 -125 8 -47 21
-134 30 -195 18 -131 20 -146 30 -205 4 -25 8 -58 9 -75 1 -16 4 -43 8 -60 3
-16 9 -57 12 -90 3 -33 8 -67 10 -75 2 -8 6 -45 10 -82 3 -37 8 -77 10 -90 2
-13 6 -50 10 -83 3 -33 8 -73 10 -90 4 -28 14 -132 20 -200 3 -33 13 -134 20
-205 4 -44 9 -101 20 -245 3 -38 8 -95 10 -125 3 -30 7 -91 10 -135 2 -44 7
-123 10 -175 25 -411 30 -632 30 -1260 0 -540 -7 -890 -20 -1090 -16 -232 -16
-328 -1 -395 73 -311 361 -515 670 -473 91 12 180 45 249 92 87 58 113 83 161
151 80 112 111 205 121 355 47 699 52 1863 10 2530 -3 52 -8 133 -10 180 -6
115 -14 243 -20 310 -2 30 -7 89 -10 130 -7 96 -15 185 -20 230 -2 19 -7 71
-10 115 -3 44 -8 96 -10 115 -9 80 -15 138 -20 190 -5 56 -12 118 -20 180 -3
19 -7 58 -10 85 -8 68 -34 282 -40 323 -3 18 -7 54 -10 80 -3 26 -8 54 -10 62
-2 8 -7 39 -10 69 -4 30 -9 63 -11 75 -2 12 -7 41 -10 66 -3 25 -19 126 -34
225 -16 99 -32 197 -35 219 -4 21 -9 48 -11 60 -4 22 -19 104 -29 166 -10 54
-34 183 -39 206 -2 12 -7 38 -10 58 -3 19 -10 55 -15 78 -6 24 -12 55 -15 70
-2 15 -12 63 -20 105 -9 43 -18 87 -20 98 -13 64 -81 373 -98 445 -11 47 -21
92 -23 100 -2 8 -11 47 -20 85 -9 39 -18 77 -20 85 -42 196 -215 830 -317
1165 -38 127 -73 244 -78 260 -11 43 -199 604 -258 770 -105 295 -172 473
-237 635 -26 63 -48 120 -49 125 -2 6 -8 21 -13 35 -6 14 -25 61 -43 105 -17
44 -38 95 -46 113 -31 71 -43 100 -69 162 -14 36 -36 85 -47 110 -11 25 -40
91 -64 147 -24 56 -66 150 -94 208 -27 59 -50 109 -50 110 0 15 -342 709 -434
880 -267 498 -537 965 -708 1223 -26 41 -48 75 -48 77 0 2 -64 99 -142 216
-79 116 -147 219 -153 228 -47 78 -401 560 -559 761 -81 103 -362 447 -376
460 -3 3 -34 39 -70 80 -62 72 -184 208 -300 335 -72 79 -586 593 -670 670
-55 50 -155 139 -230 205 -9 8 -45 40 -80 70 -95 83 -76 68 -285 236 -357 287
-791 591 -1120 784 -289 170 -413 237 -660 359 -146 73 -450 211 -462 211 -3
0 -19 6 -36 14 -165 75 -535 206 -812 286 -219 64 -597 154 -692 165 -11 2
-29 5 -40 9 -10 3 -36 8 -58 11 -23 3 -52 8 -65 10 -28 6 -144 23 -205 31 -22
3 -53 7 -70 9 -57 9 -292 33 -385 40 -89 7 -598 23 -603 19z"/>
<path d="M14748 22225 c-1 -1 -48 -6 -103 -9 -95 -7 -120 -9 -232 -21 -43 -5
-158 -20 -230 -30 -57 -8 -108 -16 -123 -20 -8 -3 -33 -7 -55 -11 -34 -5 -193
-37 -245 -49 -128 -30 -400 -105 -525 -145 -147 -48 -432 -149 -480 -170 -11
-5 -87 -36 -170 -69 -902 -356 -1683 -796 -2301 -1297 -121 -98 -125 -101
-274 -235 -121 -109 -374 -361 -440 -439 -25 -29 -50 -59 -57 -65 -82 -83
-303 -374 -435 -572 -88 -132 -238 -386 -238 -402 0 -5 -3 -11 -7 -13 -11 -4
-142 -271 -198 -403 -200 -466 -349 -1002 -420 -1500 -3 -23 -7 -50 -9 -61 -2
-12 -7 -45 -11 -75 -3 -30 -8 -65 -10 -79 -6 -36 -20 -178 -31 -305 -31 -360
-35 -986 -9 -1370 2 -33 7 -103 10 -155 3 -52 8 -111 10 -130 2 -19 6 -71 10
-115 6 -83 13 -165 20 -225 2 -19 7 -66 10 -105 3 -38 8 -77 10 -85 2 -8 7
-46 11 -85 3 -38 8 -78 10 -88 2 -11 6 -45 9 -76 4 -31 8 -67 11 -81 5 -32 22
-162 29 -220 3 -25 9 -70 14 -100 6 -30 12 -73 15 -95 5 -34 18 -120 51 -325
3 -19 8 -51 11 -70 4 -19 8 -48 10 -64 2 -16 11 -66 19 -110 8 -45 17 -98 21
-120 3 -21 8 -48 10 -60 9 -49 24 -134 29 -171 4 -22 8 -47 10 -55 2 -8 7 -31
10 -50 3 -19 14 -80 25 -135 10 -55 24 -127 29 -160 6 -33 13 -69 15 -80 25
-131 47 -245 51 -265 3 -14 7 -36 10 -50 2 -14 13 -72 24 -130 11 -58 43 -224
71 -370 28 -146 55 -287 61 -315 16 -84 18 -98 29 -150 14 -66 19 -93 26 -135
3 -19 12 -67 20 -107 8 -39 17 -88 20 -109 3 -20 8 -46 10 -58 12 -57 25 -124
30 -156 3 -19 9 -53 14 -75 5 -22 12 -56 15 -75 3 -19 10 -61 16 -92 5 -32 12
-69 14 -83 11 -59 25 -142 29 -162 3 -11 8 -43 12 -70 5 -26 9 -50 9 -53 1 -5
14 -76 20 -110 1 -8 6 -35 10 -60 4 -25 9 -54 11 -65 3 -11 9 -51 15 -90 20
-125 37 -236 44 -275 3 -14 7 -45 10 -70 3 -25 10 -67 15 -95 7 -43 15 -95 25
-170 16 -117 27 -195 31 -217 10 -65 13 -86 19 -143 3 -33 7 -71 10 -85 2 -14
7 -47 10 -75 3 -27 7 -66 10 -85 3 -19 7 -57 10 -85 3 -27 7 -68 10 -90 11
-98 17 -163 20 -200 2 -22 6 -60 9 -85 2 -25 8 -85 11 -135 4 -49 8 -101 10
-115 2 -14 6 -68 10 -120 3 -52 8 -126 11 -164 6 -74 8 -103 20 -396 13 -325
7 -1002 -11 -1230 -1 -19 -6 -80 -9 -135 -4 -55 -9 -118 -11 -140 -3 -22 -7
-67 -10 -100 -6 -73 -15 -161 -20 -195 -2 -14 -6 -50 -10 -80 -10 -89 -15
-130 -31 -230 -8 -52 -17 -111 -20 -130 -3 -19 -14 -87 -25 -150 -11 -63 -22
-124 -24 -135 -1 -11 -12 -63 -23 -115 -12 -52 -23 -106 -26 -120 -6 -34 -60
-257 -85 -350 -106 -405 -241 -796 -414 -1200 -52 -123 -69 -195 -68 -293 1
-136 35 -239 115 -351 24 -33 62 -77 86 -96 23 -19 47 -40 53 -45 19 -17 129
-72 167 -83 274 -86 584 39 713 287 58 110 214 494 288 711 33 96 121 364 130
395 4 17 18 62 29 100 61 201 179 685 205 838 3 18 8 39 10 47 5 16 60 332 69
390 28 195 46 323 51 365 3 28 7 64 9 80 10 83 19 169 31 305 3 41 8 91 10
110 4 32 10 123 20 305 24 423 24 1085 0 1500 -18 328 -22 392 -29 480 -3 39
-8 102 -12 140 -3 39 -7 84 -9 100 -2 17 -6 66 -10 110 -4 44 -9 87 -10 96 -2
8 -6 53 -10 100 -4 46 -9 92 -10 101 -2 9 -7 48 -10 85 -4 37 -8 79 -10 93 -3
14 -7 48 -10 75 -3 28 -7 61 -10 75 -2 14 -7 53 -10 88 -4 35 -8 73 -11 85 -2
12 -6 42 -9 67 -3 25 -8 56 -10 70 -2 14 -7 43 -10 65 -8 65 -55 388 -60 415
-2 14 -11 70 -20 125 -8 55 -17 111 -19 125 -3 14 -14 81 -26 149 -27 165 -29
177 -40 241 -5 30 -12 71 -15 90 -3 19 -10 58 -15 85 -16 84 -20 109 -25 145
-3 19 -7 42 -10 50 -2 8 -7 35 -10 60 -3 25 -8 52 -10 60 -3 8 -23 112 -45
230 -22 118 -42 224 -44 235 -2 11 -9 47 -15 80 -6 33 -13 71 -16 85 -14 74
-27 138 -31 160 -2 14 -7 39 -11 55 -3 17 -7 37 -8 45 -2 12 -25 132 -41 215
-2 11 -11 58 -20 105 -9 47 -18 94 -21 105 -2 11 -6 31 -8 45 -2 14 -9 50 -15
80 -6 30 -13 66 -16 80 -3 14 -18 97 -35 185 -17 88 -33 171 -35 185 -3 14
-15 81 -29 150 -13 69 -26 141 -29 160 -3 19 -10 60 -16 90 -6 30 -13 70 -16
89 -3 18 -8 43 -10 55 -2 11 -7 37 -10 56 -4 19 -8 44 -10 55 -2 11 -9 47 -14
80 -5 33 -12 70 -14 81 -5 25 -14 79 -21 132 -3 20 -10 60 -15 87 -11 56 -12
65 -35 215 -9 58 -18 116 -21 130 -7 44 -46 314 -49 349 -3 19 -6 48 -9 65 -3
17 -8 54 -11 81 -7 60 -15 119 -20 160 -5 32 -10 83 -20 180 -5 57 -9 93 -20
188 -2 23 -7 71 -10 107 -8 105 -16 202 -20 255 -27 326 -27 1035 0 1330 2 28
7 81 10 120 3 38 8 83 10 100 49 353 51 364 81 510 129 620 337 1122 662 1595
56 82 186 255 202 270 3 3 27 32 55 65 243 292 651 658 994 890 36 25 85 58
109 75 23 16 44 30 46 30 2 0 44 27 94 60 51 33 94 60 98 60 3 0 18 8 32 19
15 10 45 29 67 41 230 130 316 176 475 255 102 51 208 103 235 115 102 46 140
63 145 65 3 1 28 12 55 24 167 76 514 212 765 300 225 78 550 164 745 195 17
3 46 8 65 11 138 23 206 31 435 51 144 12 489 6 645 -11 25 -3 68 -7 96 -10
29 -2 65 -6 80 -9 16 -3 47 -7 69 -11 23 -3 52 -7 65 -10 14 -3 50 -9 80 -15
69 -13 83 -16 145 -30 28 -6 58 -13 68 -15 49 -10 256 -72 357 -107 583 -201
1149 -535 1680 -992 239 -205 514 -475 710 -695 41 -47 82 -92 90 -101 8 -8
35 -40 60 -70 25 -29 61 -72 81 -94 124 -142 499 -638 599 -792 8 -12 61 -91
118 -174 56 -84 102 -156 102 -161 0 -5 5 -9 10 -9 6 0 10 -4 10 -9 0 -5 41
-73 90 -151 50 -78 90 -143 90 -145 0 -2 36 -62 80 -134 44 -73 80 -133 80
-135 0 -1 32 -59 71 -127 65 -114 99 -177 231 -424 296 -555 686 -1428 940
-2105 11 -30 26 -68 33 -85 7 -16 18 -48 25 -70 7 -22 18 -53 25 -70 60 -145
282 -801 400 -1185 87 -283 252 -854 280 -970 1 -8 13 -51 25 -95 19 -74 57
-220 65 -255 2 -8 11 -43 20 -77 9 -35 18 -71 20 -80 2 -10 20 -85 40 -168 20
-82 39 -160 41 -171 2 -12 17 -77 33 -145 17 -68 32 -135 35 -149 2 -14 13
-65 25 -115 11 -49 22 -101 25 -115 40 -195 116 -569 120 -589 2 -14 16 -87
30 -161 13 -75 27 -151 31 -170 3 -19 10 -57 15 -85 13 -70 19 -105 25 -145 3
-19 10 -55 15 -80 5 -25 14 -79 20 -120 7 -41 13 -86 16 -100 18 -107 58 -366
79 -515 14 -99 28 -191 30 -205 2 -14 7 -52 10 -85 4 -33 9 -69 10 -80 2 -11
6 -44 10 -74 4 -30 8 -63 10 -73 2 -11 7 -47 10 -81 3 -34 8 -73 11 -87 2 -14
7 -50 9 -80 3 -30 7 -71 10 -90 2 -19 7 -60 10 -90 3 -30 7 -66 10 -80 2 -14
7 -60 10 -102 3 -42 7 -85 9 -95 2 -10 7 -54 10 -98 4 -44 9 -96 11 -115 1
-19 6 -71 10 -115 3 -44 8 -91 10 -105 2 -14 6 -70 10 -125 3 -55 8 -118 10
-140 4 -40 11 -136 20 -290 3 -44 7 -118 10 -165 22 -377 34 -741 40 -1190 2
-233 6 -308 19 -358 55 -209 208 -371 411 -438 46 -14 88 -19 175 -19 128 1
142 3 226 37 188 76 328 243 370 440 14 62 15 134 10 488 -4 228 -9 456 -11
505 -2 50 -7 164 -11 255 -11 265 -11 270 -19 380 -3 58 -8 134 -10 170 -2 36
-6 94 -9 130 -3 36 -8 106 -11 155 -4 50 -8 106 -10 125 -2 19 -6 73 -10 120
-3 47 -8 101 -10 120 -4 35 -9 96 -21 220 -8 95 -14 149 -19 200 -3 25 -8 68
-11 95 -8 84 -15 149 -19 175 -2 14 -6 52 -10 85 -3 33 -12 112 -20 175 -8 63
-17 135 -20 160 -8 69 -15 122 -21 160 -5 37 -10 74 -19 155 -4 28 -8 57 -10
65 -2 8 -7 40 -10 70 -3 30 -8 66 -10 80 -2 14 -11 68 -19 120 -8 52 -18 115
-21 140 -3 25 -20 126 -36 225 -16 99 -32 195 -34 214 -2 18 -7 41 -9 50 -3 9
-7 34 -11 56 -3 22 -10 67 -16 100 -5 33 -12 74 -15 90 -2 17 -9 50 -14 75 -5
25 -14 72 -20 105 -5 33 -12 71 -15 85 -3 14 -10 50 -15 80 -6 30 -20 102 -31
160 -12 58 -22 114 -24 125 -2 11 -29 142 -60 290 -32 149 -59 281 -62 294 -2
14 -6 28 -8 31 -2 4 -6 20 -9 36 -7 38 -45 205 -96 419 -22 94 -43 180 -46
193 -2 12 -18 75 -35 140 -17 64 -34 128 -36 142 -6 28 -154 578 -184 685 -11
39 -28 99 -39 135 -114 405 -445 1435 -499 1555 -5 11 -46 121 -91 245 -112
307 -283 739 -428 1075 -118 275 -147 341 -221 500 -21 44 -58 123 -82 175
-46 101 -349 704 -391 780 -14 25 -46 86 -73 135 -232 434 -625 1068 -891
1440 -150 208 -265 362 -392 525 -141 180 -394 476 -542 635 -166 179 -537
542 -670 655 -14 12 -36 31 -50 43 -54 47 -207 174 -250 207 -25 19 -47 37
-50 40 -14 16 -252 189 -375 273 -320 217 -678 417 -990 552 -60 26 -128 55
-150 65 -213 94 -751 257 -975 296 -14 3 -47 9 -75 14 -82 17 -91 18 -142 25
-26 4 -59 9 -73 11 -14 2 -49 6 -79 10 -30 3 -62 8 -70 9 -9 2 -54 6 -101 10
-47 4 -101 9 -120 12 -42 5 -647 13 -652 8z"/>
<path d="M14937 19694 c-1 -1 -57 -4 -124 -8 -109 -6 -157 -10 -323 -32 -42
-5 -319 -57 -365 -68 -451 -106 -1033 -333 -1353 -527 -35 -21 -67 -39 -71
-39 -22 0 -451 -302 -509 -357 -7 -7 -34 -29 -60 -50 -51 -42 -307 -295 -362
-358 -358 -414 -609 -860 -791 -1405 -49 -147 -129 -431 -145 -519 -3 -12 -11
-51 -19 -85 -8 -33 -17 -77 -20 -96 -3 -19 -10 -61 -16 -93 -5 -32 -12 -70
-14 -85 -2 -15 -6 -36 -9 -48 -2 -12 -7 -45 -11 -75 -3 -30 -8 -61 -10 -69 -2
-8 -7 -44 -10 -80 -3 -36 -8 -76 -10 -90 -6 -37 -19 -178 -30 -330 -25 -329
-25 -1199 0 -1462 2 -23 6 -90 10 -148 3 -58 8 -127 10 -155 2 -27 7 -86 10
-130 3 -44 8 -98 10 -120 2 -22 7 -69 10 -105 3 -36 7 -85 10 -110 3 -25 7
-70 10 -100 3 -30 7 -71 9 -90 6 -47 15 -131 21 -205 3 -33 7 -76 10 -95 10
-70 15 -106 20 -155 3 -27 7 -63 10 -80 2 -16 7 -55 10 -86 3 -31 7 -66 10
-77 2 -12 6 -45 9 -74 4 -29 8 -62 10 -73 2 -11 7 -47 10 -80 9 -74 12 -93 31
-230 8 -60 18 -126 20 -145 3 -19 10 -69 15 -110 6 -41 13 -93 15 -115 3 -22
7 -51 10 -65 6 -32 12 -70 20 -140 4 -30 9 -64 11 -75 2 -10 6 -37 9 -60 3
-22 10 -65 15 -95 8 -52 12 -79 26 -182 3 -24 9 -65 14 -93 5 -27 12 -72 15
-100 3 -27 10 -75 15 -105 5 -30 12 -75 15 -100 3 -25 7 -54 9 -65 5 -28 15
-92 21 -145 3 -25 8 -52 10 -60 2 -8 6 -37 10 -65 3 -27 10 -75 15 -105 5 -30
12 -77 15 -105 3 -27 8 -59 10 -71 3 -11 7 -43 10 -70 3 -27 8 -56 10 -64 2
-8 7 -42 11 -75 3 -33 8 -62 9 -65 2 -3 6 -34 10 -70 4 -36 9 -67 10 -70 2 -3
6 -35 10 -70 3 -36 8 -72 10 -80 4 -15 12 -72 20 -145 3 -22 7 -51 10 -65 3
-14 7 -42 10 -64 2 -21 7 -55 9 -75 3 -20 10 -74 16 -121 6 -47 13 -96 15
-110 2 -14 7 -50 10 -80 3 -30 8 -66 10 -80 2 -14 6 -47 10 -75 3 -27 8 -66
10 -85 7 -54 35 -289 40 -345 3 -27 8 -66 10 -85 7 -59 14 -122 20 -180 3 -30
7 -68 9 -85 2 -16 7 -64 10 -105 4 -41 9 -91 11 -110 2 -19 7 -69 10 -110 3
-41 8 -95 10 -120 7 -57 12 -123 20 -230 3 -47 8 -106 10 -131 3 -26 7 -86 10
-135 3 -49 7 -116 9 -149 5 -61 14 -233 21 -380 22 -455 22 -1241 0 -1570 -2
-33 -6 -107 -10 -165 -3 -58 -8 -127 -10 -155 -2 -27 -7 -86 -10 -130 -3 -44
-8 -96 -10 -115 -2 -19 -7 -64 -10 -100 -6 -64 -9 -97 -21 -195 -9 -86 -64
-469 -69 -485 -3 -8 -7 -35 -10 -60 -3 -25 -8 -52 -10 -60 -2 -8 -7 -31 -10
-50 -57 -355 -191 -877 -335 -1305 -77 -226 -84 -260 -83 -375 3 -279 226
-529 513 -577 54 -9 178 -3 235 12 161 41 314 160 387 301 51 98 189 514 277
834 51 184 135 537 146 610 3 19 8 42 10 50 2 8 6 26 9 40 2 14 16 84 30 155
14 72 28 148 31 170 3 22 12 78 20 125 16 95 21 132 30 205 4 28 8 62 11 76 6
38 15 108 19 149 2 19 6 53 9 75 8 60 25 222 31 290 8 106 16 189 20 235 3 25
8 90 11 145 3 55 7 129 9 165 27 434 26 1371 0 1845 -2 33 -6 116 -10 185 -3
69 -8 148 -10 175 -2 28 -7 97 -11 155 -3 58 -8 119 -9 135 -2 17 -6 71 -9
120 -4 50 -9 101 -11 115 -2 14 -6 66 -10 115 -7 93 -12 152 -20 220 -2 22 -7
72 -10 110 -3 39 -8 81 -10 95 -2 14 -7 59 -10 100 -3 41 -8 82 -10 90 -2 8
-7 49 -10 90 -4 41 -8 86 -10 100 -3 14 -7 50 -10 80 -3 30 -7 71 -10 90 -2
19 -9 76 -15 125 -6 50 -13 101 -15 115 -2 14 -9 70 -15 125 -6 55 -13 111
-16 125 -2 14 -6 45 -10 70 -7 60 -38 283 -69 510 -14 102 -28 204 -31 226 -3
23 -7 52 -9 63 -2 12 -11 74 -20 139 -9 64 -18 128 -20 142 -2 14 -7 41 -9 60
-24 165 -36 248 -40 265 -2 11 -7 45 -11 75 -4 30 -9 64 -11 75 -2 11 -6 42
-10 70 -3 27 -7 52 -9 55 -1 3 -6 32 -9 65 -4 33 -9 67 -11 75 -2 8 -7 38 -10
65 -3 28 -10 75 -15 105 -5 30 -12 75 -15 100 -3 25 -8 56 -10 70 -17 107 -25
161 -30 195 -3 22 -7 54 -9 70 -3 17 -12 82 -21 145 -18 129 -23 164 -30 200
-3 14 -7 50 -10 80 -3 30 -8 62 -10 70 -2 8 -7 38 -10 65 -3 28 -7 59 -9 71
-2 11 -7 45 -11 75 -3 30 -7 65 -9 79 -2 14 -7 48 -10 75 -4 28 -9 64 -11 80
-4 30 -21 156 -29 225 -28 221 -35 283 -41 340 -3 30 -7 66 -10 80 -2 14 -7
59 -10 100 -3 41 -8 82 -10 90 -2 8 -6 47 -9 87 -3 39 -8 86 -10 105 -3 18 -8
68 -11 110 -4 43 -8 91 -10 108 -2 17 -7 76 -10 130 -3 55 -8 114 -10 132 -3
30 -11 141 -20 298 -22 376 -22 1088 0 1265 2 16 7 68 10 115 7 92 7 98 24
240 14 115 31 222 67 424 36 196 121 484 202 686 239 597 637 1051 1192 1363
98 55 324 167 336 167 3 0 20 7 37 15 223 102 686 234 918 260 29 4 56 8 59
10 10 6 241 19 340 18 216 0 429 -29 648 -87 31 -9 68 -18 82 -22 14 -3 34
-10 45 -14 11 -5 52 -20 90 -34 39 -13 104 -39 145 -56 80 -35 322 -158 330
-169 3 -4 28 -20 55 -35 80 -46 340 -232 391 -281 6 -5 35 -31 65 -57 30 -25
65 -56 79 -68 58 -50 212 -204 300 -300 52 -57 102 -110 110 -119 8 -9 33 -39
55 -66 22 -27 48 -59 58 -70 47 -52 253 -326 347 -463 97 -141 318 -490 341
-537 5 -11 13 -27 19 -35 14 -22 66 -114 107 -190 20 -36 49 -89 65 -118 60
-109 338 -675 338 -688 0 -2 16 -39 36 -81 20 -43 54 -121 76 -173 22 -52 48
-113 58 -135 129 -291 401 -1039 534 -1470 21 -66 40 -127 43 -135 3 -8 7 -19
9 -25 1 -5 21 -73 44 -150 135 -455 341 -1236 400 -1520 4 -22 36 -168 70
-325 34 -157 64 -294 66 -305 12 -60 44 -223 48 -245 2 -14 11 -59 20 -100 13
-64 37 -191 52 -280 3 -14 11 -61 19 -105 8 -44 17 -96 20 -115 3 -19 15 -84
25 -145 11 -60 22 -128 25 -150 11 -69 15 -98 25 -155 5 -30 14 -85 20 -123 5
-37 14 -95 20 -130 5 -34 12 -79 15 -99 3 -21 7 -54 10 -73 3 -19 7 -50 9 -67
3 -18 14 -96 25 -173 11 -77 23 -165 26 -195 3 -30 10 -82 15 -115 5 -33 12
-82 15 -110 3 -27 7 -61 10 -75 2 -14 7 -54 10 -90 3 -36 8 -81 10 -100 15
-120 20 -161 35 -305 16 -152 20 -187 25 -225 2 -19 7 -71 10 -115 4 -44 8
-93 10 -110 2 -16 6 -61 10 -100 5 -67 10 -120 20 -230 3 -27 7 -86 10 -130 3
-44 8 -105 10 -135 6 -70 12 -150 20 -270 3 -52 8 -124 10 -160 3 -36 7 -110
10 -165 3 -55 7 -131 9 -170 10 -148 21 -435 32 -795 10 -351 10 -1337 -1
-1670 -14 -424 -13 -460 15 -555 42 -141 169 -292 300 -357 106 -52 177 -69
289 -67 170 3 298 58 423 182 84 83 143 198 164 317 19 104 29 550 29 1305 0
786 -9 1147 -41 1740 -2 44 -6 123 -9 175 -3 52 -7 122 -10 155 -2 33 -7 101
-10 150 -3 50 -8 115 -10 145 -2 30 -7 93 -10 140 -4 47 -8 101 -10 120 -2 19
-6 76 -10 125 -3 50 -8 104 -10 120 -2 17 -7 66 -10 110 -3 44 -7 91 -10 105
-2 14 -7 65 -10 114 -4 50 -8 97 -10 105 -2 9 -6 52 -10 96 -9 97 -10 113 -19
190 -4 33 -9 80 -12 105 -2 25 -7 61 -9 80 -2 19 -7 60 -10 90 -3 30 -12 107
-20 170 -8 63 -17 135 -20 160 -9 77 -25 201 -40 305 -8 55 -17 123 -20 150
-3 28 -8 61 -10 75 -3 14 -7 39 -9 55 -2 17 -7 48 -10 70 -4 22 -9 58 -11 79
-3 22 -8 53 -11 70 -7 44 -11 71 -24 161 -6 44 -20 130 -30 190 -11 61 -21
126 -24 145 -10 64 -71 421 -81 470 -5 26 -23 121 -31 167 -3 16 -16 87 -30
158 -14 72 -28 141 -30 155 -3 14 -12 59 -20 100 -9 41 -18 86 -20 100 -2 14
-11 54 -19 90 -8 36 -16 79 -19 95 -3 17 -26 120 -50 230 -175 783 -320 1337
-540 2060 -50 161 -222 679 -279 835 -595 1639 -1273 2872 -2081 3785 -92 103
-411 423 -501 502 -353 307 -687 533 -1056 711 -190 92 -438 188 -614 237 -27
8 -75 21 -105 30 -30 8 -68 18 -85 21 -16 2 -57 11 -90 18 -33 8 -94 19 -135
26 -41 6 -86 13 -100 16 -14 2 -45 6 -70 9 -25 3 -58 7 -75 10 -82 12 -507 27
-518 19z"/>
<path d="M15189 17136 c-2 -2 -30 -7 -62 -10 -270 -29 -692 -188 -948 -358
-424 -281 -728 -692 -910 -1231 -22 -65 -42 -126 -45 -135 -2 -9 -11 -42 -19
-72 -17 -60 -61 -247 -69 -295 -3 -16 -12 -68 -20 -115 -8 -47 -17 -114 -21
-150 -4 -36 -9 -73 -10 -82 -8 -38 -22 -224 -31 -398 -12 -226 -5 -820 11
-1000 2 -25 6 -88 10 -140 9 -138 23 -317 30 -395 2 -22 7 -67 10 -100 3 -33
7 -76 10 -95 2 -19 7 -61 10 -92 11 -124 16 -174 20 -198 2 -14 6 -47 9 -75 6
-49 10 -82 21 -175 3 -25 8 -67 11 -94 3 -27 7 -57 9 -67 2 -10 6 -45 10 -78
3 -33 8 -70 10 -83 3 -13 7 -45 10 -73 3 -27 7 -59 9 -70 2 -11 7 -46 11 -79
3 -32 8 -68 10 -80 2 -11 6 -41 9 -66 3 -25 14 -110 26 -190 11 -80 23 -163
26 -185 3 -22 7 -51 9 -65 2 -14 6 -45 10 -70 6 -49 16 -116 20 -140 2 -8 6
-44 10 -80 4 -36 8 -67 10 -70 2 -3 6 -34 10 -70 4 -36 9 -67 10 -70 2 -3 7
-35 10 -70 4 -36 8 -67 10 -70 1 -3 6 -32 10 -65 8 -64 10 -77 19 -140 12 -86
37 -262 42 -300 6 -45 9 -69 19 -140 9 -60 11 -73 19 -145 4 -30 9 -62 11 -70
2 -8 7 -37 10 -65 3 -27 8 -70 11 -95 4 -25 7 -56 9 -70 1 -14 5 -43 9 -65 6
-40 10 -69 21 -160 3 -27 8 -68 11 -90 9 -68 12 -88 19 -150 4 -33 9 -71 11
-85 2 -14 6 -50 9 -80 3 -30 8 -66 10 -80 2 -14 7 -50 10 -80 3 -30 8 -71 10
-90 5 -34 8 -66 20 -180 3 -30 8 -66 10 -80 2 -14 6 -59 10 -100 3 -41 8 -82
10 -90 2 -8 7 -55 10 -104 4 -49 8 -96 10 -105 1 -9 6 -50 9 -91 4 -41 9 -95
11 -120 8 -82 23 -256 30 -350 3 -36 7 -92 10 -125 3 -33 7 -94 10 -135 3 -41
7 -109 10 -150 35 -519 49 -936 49 -1465 -1 -340 -9 -756 -19 -876 -2 -24 -6
-100 -10 -169 -3 -69 -8 -145 -10 -170 -2 -25 -7 -85 -10 -135 -3 -49 -8 -101
-10 -115 -2 -14 -6 -65 -10 -115 -3 -49 -8 -101 -10 -115 -2 -14 -6 -50 -10
-80 -12 -114 -16 -156 -20 -190 -10 -76 -55 -406 -60 -430 -6 -37 -26 -161
-31 -195 -2 -16 -6 -41 -8 -55 -3 -14 -19 -95 -35 -180 -17 -85 -32 -166 -35
-180 -16 -86 -100 -451 -121 -525 -49 -177 -63 -259 -60 -349 6 -161 62 -284
181 -403 80 -80 194 -142 296 -163 57 -11 183 -15 227 -6 230 48 397 193 472
410 22 64 89 311 104 386 2 8 13 58 25 110 12 52 23 103 25 113 2 10 6 26 9
35 3 9 7 28 10 42 2 14 11 59 19 100 9 41 19 91 22 110 3 19 10 53 15 75 12
52 14 67 59 325 20 121 58 367 66 435 2 22 6 56 9 75 3 19 8 58 11 85 3 28 8
64 10 80 7 50 14 114 25 225 6 58 12 125 15 150 11 109 15 160 20 240 3 47 8
110 10 140 31 406 40 697 40 1330 0 477 -7 823 -20 1040 -2 30 -6 109 -10 175
-10 195 -14 255 -21 355 -4 52 -8 113 -9 135 -3 51 -15 206 -20 265 -3 25 -7
77 -10 115 -3 39 -7 94 -10 123 -3 28 -7 76 -10 105 -12 133 -16 174 -20 207
-3 19 -7 64 -10 100 -3 36 -8 81 -10 100 -2 19 -6 64 -10 100 -7 71 -13 123
-20 185 -3 22 -7 60 -10 85 -11 110 -22 206 -30 260 -2 14 -6 50 -9 80 -6 55
-12 104 -21 170 -3 19 -7 53 -10 75 -2 22 -7 58 -10 80 -3 22 -7 63 -10 90 -3
28 -8 57 -10 65 -2 8 -7 44 -10 80 -3 36 -8 72 -10 80 -2 8 -7 40 -10 70 -9
72 -13 103 -19 148 -3 20 -8 57 -11 81 -3 23 -7 55 -9 70 -3 14 -10 64 -16
111 -9 71 -29 211 -45 320 -2 14 -6 47 -10 73 -4 27 -8 56 -10 65 -1 10 -6 42
-9 72 -4 30 -8 66 -11 80 -11 68 -25 164 -60 425 -2 11 -8 58 -15 105 -7 47
-13 94 -15 105 -5 47 -18 131 -21 149 -2 10 -6 44 -9 75 -4 31 -8 63 -10 71
-2 8 -7 42 -11 75 -3 33 -8 67 -9 76 -2 9 -6 40 -10 70 -3 30 -8 65 -10 79 -3
14 -7 48 -10 75 -3 28 -8 61 -10 75 -2 14 -7 45 -10 70 -3 25 -9 79 -15 120
-5 41 -12 98 -15 125 -3 28 -8 61 -10 75 -2 14 -6 52 -10 85 -5 56 -11 108
-20 180 -4 31 -9 73 -30 280 -10 98 -14 141 -20 210 -3 39 -8 88 -10 110 -2
22 -7 83 -11 135 -3 52 -8 111 -9 130 -2 19 -7 103 -10 185 -4 83 -9 170 -10
195 -5 62 -5 531 0 605 10 163 16 256 20 273 1 10 6 49 10 87 3 38 8 72 10 75
1 3 6 32 10 65 3 32 8 62 10 65 2 4 7 22 10 41 3 19 15 70 26 113 87 342 248
608 464 766 107 78 310 167 427 186 189 31 380 -58 617 -286 23 -22 158 -173
186 -207 6 -7 15 -18 21 -25 64 -79 214 -298 300 -440 181 -298 381 -703 548
-1108 38 -91 72 -174 77 -185 27 -66 50 -125 134 -355 142 -389 215 -611 339
-1025 20 -66 40 -133 45 -150 32 -99 166 -591 201 -735 10 -41 37 -149 59
-240 57 -229 207 -887 216 -945 2 -11 12 -65 24 -120 26 -124 82 -412 111
-570 5 -27 11 -61 14 -75 7 -38 64 -360 70 -400 8 -47 14 -83 28 -160 6 -36
12 -74 13 -85 1 -11 5 -36 8 -55 7 -36 41 -262 52 -335 3 -23 7 -50 9 -60 2
-11 7 -42 10 -70 4 -27 13 -95 21 -150 12 -86 30 -215 40 -293 2 -12 6 -50 10
-85 4 -34 9 -70 11 -80 2 -10 6 -48 10 -85 3 -36 7 -73 9 -82 2 -9 6 -43 10
-75 7 -68 13 -118 19 -172 6 -44 14 -127 21 -198 3 -27 9 -93 15 -145 5 -52
12 -122 15 -155 3 -33 8 -82 10 -110 9 -100 14 -162 21 -250 3 -49 7 -108 10
-130 3 -36 6 -80 19 -275 2 -30 6 -109 10 -175 3 -66 8 -147 10 -180 27 -404
27 -1654 0 -1893 -2 -20 -7 -80 -10 -132 -6 -102 -23 -295 -30 -345 -3 -16 -9
-70 -15 -120 -15 -124 -17 -138 -56 -370 -12 -71 -57 -267 -80 -350 -14 -49
-27 -97 -29 -105 -2 -8 -22 -69 -45 -135 -56 -166 -65 -255 -40 -382 12 -59
68 -188 98 -225 140 -174 310 -258 507 -253 223 7 420 129 524 325 52 99 189
539 217 700 3 14 13 66 24 115 10 50 21 108 24 130 4 22 11 65 16 95 18 103
55 381 65 485 3 33 8 74 10 90 2 17 6 66 10 110 4 44 8 99 10 121 2 23 7 91
10 150 4 60 8 136 10 169 22 353 22 1324 0 1705 -2 30 -6 120 -10 200 -4 80
-8 168 -10 195 -8 133 -17 274 -20 310 -2 22 -7 83 -10 135 -4 52 -9 109 -10
125 -2 17 -6 71 -9 120 -4 50 -9 106 -11 125 -2 19 -6 64 -10 100 -3 36 -7 83
-9 105 -2 22 -7 72 -11 110 -3 39 -8 89 -11 113 -3 24 -7 62 -9 85 -2 23 -6
60 -8 82 -9 62 -17 136 -22 185 -2 25 -9 86 -15 135 -6 50 -13 108 -15 130
-10 86 -19 154 -30 228 -5 33 -29 221 -41 312 -3 28 -7 57 -9 65 -4 22 -14 88
-20 135 -3 23 -7 50 -9 60 -2 11 -7 43 -10 70 -4 28 -14 93 -22 145 -18 105
-19 114 -28 185 -4 28 -9 57 -11 65 -3 8 -7 33 -10 55 -4 22 -22 132 -42 245
-19 113 -37 215 -38 227 -2 12 -6 34 -9 50 -4 15 -9 42 -11 58 -3 17 -10 53
-15 80 -5 28 -12 61 -14 75 -3 14 -10 50 -16 80 -6 30 -13 66 -15 80 -2 14 -9
50 -15 80 -6 30 -13 66 -16 80 -2 14 -9 45 -14 70 -5 25 -12 61 -15 80 -3 19
-10 51 -15 70 -8 31 -46 210 -56 265 -2 11 -17 81 -34 155 -17 74 -33 146 -36
160 -5 22 -70 302 -110 470 -9 36 -20 79 -25 95 -7 25 -31 120 -43 175 -2 8
-18 69 -36 135 -139 526 -252 911 -393 1335 -44 135 -82 247 -82 250 -1 3 -4
12 -7 20 -4 8 -28 76 -54 150 -26 74 -52 146 -57 160 -6 14 -11 30 -12 35 -3
12 -103 271 -115 300 -5 11 -34 81 -64 155 -209 519 -448 1001 -700 1410 -86
141 -238 359 -336 485 -166 211 -387 438 -560 573 -148 116 -361 242 -510 302
-30 12 -64 26 -75 31 -39 16 -202 59 -285 75 -75 14 -411 30 -421 20z"/>
<path d="M15731 13459 c-204 -41 -377 -188 -449 -381 -30 -81 -34 -101 -37
-203 -2 -97 -4 -91 93 -420 150 -514 363 -1377 428 -1735 3 -14 13 -65 24
-115 10 -49 21 -104 24 -121 3 -17 19 -102 36 -190 17 -87 33 -175 36 -194 3
-19 7 -42 9 -50 2 -8 7 -31 10 -50 3 -19 8 -46 10 -60 8 -40 12 -61 25 -140
13 -82 13 -84 35 -215 8 -49 17 -108 20 -130 4 -22 10 -65 15 -95 10 -67 48
-330 55 -385 3 -22 8 -51 10 -65 7 -38 21 -147 31 -238 3 -29 7 -61 9 -70 1
-9 6 -46 10 -82 3 -36 8 -76 10 -90 3 -23 7 -53 19 -165 3 -22 8 -67 11 -100
8 -80 13 -129 20 -195 7 -64 13 -130 20 -220 3 -36 8 -83 10 -105 2 -22 7 -83
10 -135 4 -52 8 -111 10 -130 2 -19 6 -78 10 -130 3 -52 8 -122 10 -155 2 -33
7 -114 10 -180 4 -66 8 -151 10 -190 27 -461 27 -1824 0 -2120 -2 -22 -6 -96
-9 -165 -4 -69 -8 -147 -11 -175 -2 -27 -7 -95 -10 -150 -3 -55 -8 -116 -10
-135 -2 -19 -6 -71 -9 -115 -12 -145 -16 -189 -26 -280 -5 -49 -12 -117 -15
-150 -4 -33 -8 -76 -10 -95 -3 -19 -7 -57 -10 -85 -8 -75 -33 -268 -40 -315
-2 -14 -7 -47 -10 -75 -3 -27 -7 -61 -10 -75 -4 -26 -15 -97 -20 -137 -2 -13
-6 -40 -9 -60 -4 -21 -9 -51 -11 -68 -2 -16 -6 -41 -9 -55 -3 -14 -7 -41 -10
-60 -10 -65 -46 -274 -61 -350 -8 -41 -16 -86 -19 -100 -7 -45 -86 -424 -99
-481 -33 -136 -17 -277 44 -404 90 -189 258 -314 465 -343 70 -10 200 3 273
29 80 27 96 35 167 88 123 91 197 213 238 391 33 141 66 291 72 326 6 38 34
182 41 214 4 14 7 34 8 45 2 11 15 85 29 165 47 256 48 263 92 560 3 19 7 46
9 60 5 30 53 399 60 455 2 22 9 78 14 125 6 47 13 112 16 145 3 33 7 74 10 90
2 17 7 64 10 105 3 41 8 89 10 105 2 17 6 73 10 125 3 52 8 111 10 130 2 19 7
76 10 125 3 50 8 108 10 130 2 22 7 101 10 175 4 74 8 160 10 190 4 63 16 361
21 525 5 165 5 1047 0 1225 -5 168 -14 403 -21 540 -2 47 -7 137 -10 200 -3
63 -8 140 -10 170 -5 69 -13 187 -20 305 -3 50 -7 106 -10 125 -2 19 -7 71
-10 115 -3 44 -7 100 -10 125 -2 25 -7 77 -10 115 -4 39 -8 88 -11 110 -7 71
-15 149 -19 190 -2 22 -7 67 -10 100 -3 33 -8 71 -10 85 -2 14 -6 56 -10 93
-3 37 -8 77 -10 88 -2 11 -7 50 -10 87 -3 37 -8 74 -10 82 -2 8 -7 40 -10 70
-3 30 -8 66 -10 80 -2 14 -6 46 -9 72 -6 49 -13 102 -21 153 -2 17 -7 53 -10
80 -3 28 -8 59 -10 71 -3 12 -7 36 -10 55 -17 120 -56 376 -60 389 -2 8 -6 35
-9 60 -3 25 -8 54 -10 66 -2 11 -14 79 -26 150 -11 71 -23 140 -25 154 -13 72
-16 86 -20 100 -2 8 -7 38 -11 65 -3 28 -8 53 -10 56 -1 3 -6 28 -10 55 -3 27
-8 52 -10 55 -2 4 -6 24 -10 44 -3 21 -7 47 -10 58 -3 20 -58 293 -69 348 -3
13 -8 40 -11 59 -3 19 -8 38 -10 41 -2 3 -6 21 -9 40 -9 48 -113 513 -131 582
-8 32 -19 77 -23 100 -12 59 -132 525 -176 682 -20 72 -43 155 -51 185 -39
144 -128 421 -152 469 -74 154 -212 268 -381 317 -80 23 -203 29 -280 13z"/>
<path d="M14011 600 c-7 -4 -11 -20 -9 -36 3 -25 7 -28 39 -29 34 -1 36 0 36
32 0 18 -5 33 -11 34 -6 0 -18 2 -27 4 -9 1 -22 -1 -28 -5z"/>
<path d="M13486 308 c1 -156 2 -286 3 -290 2 -12 304 -9 340 3 47 16 64 59 64
151 0 88 -15 120 -66 142 -27 12 -29 14 -10 15 39 2 57 44 56 128 -1 43 -7 81
-14 89 -28 34 -78 44 -228 44 l-146 0 1 -282z m300 205 c9 -14 12 -114 6 -145
-4 -16 -220 -35 -223 -19 -1 4 -2 45 -3 94 l-2 87 106 0 c89 0 107 -3 116 -17z
m-33 -222 c47 -1 64 -29 66 -110 2 -82 -16 -110 -71 -112 -46 -1 -107 -1 -148
0 l-36 1 0 108 c0 59 3 109 7 112 4 3 40 4 81 3 40 -1 85 -2 101 -2z"/>
<path d="M14248 563 c-16 -2 -28 -10 -29 -16 -1 -7 -1 -33 -1 -59 -1 -48 -6
-54 -45 -49 -8 1 -13 -9 -13 -24 0 -19 5 -26 18 -24 39 4 40 2 40 -128 0 -201
1 -209 20 -233 13 -17 31 -23 63 -25 58 -3 69 2 69 31 0 20 -5 24 -29 24 -17
0 -33 6 -38 13 -11 18 -11 311 0 318 5 4 23 5 38 2 26 -4 29 -1 29 22 0 19 -5
26 -17 24 -54 -5 -60 -1 -60 44 -1 70 -3 87 -10 86 -5 -1 -20 -4 -35 -6z"/>
<path d="M16263 562 l-33 -3 0 -63 0 -63 -30 3 c-26 3 -30 1 -30 -22 0 -22 4
-25 28 -22 l27 3 5 -177 c6 -207 7 -210 92 -212 52 -1 53 -1 56 30 3 29 1 30
-27 26 -24 -3 -32 0 -38 16 -6 16 -9 280 -4 313 1 4 16 5 35 4 24 -3 36 1 40
12 9 22 0 30 -34 31 -44 1 -48 6 -45 67 2 30 0 56 -4 58 -3 1 -21 1 -38 -1z"/>
<path d="M14512 434 c-38 -16 -51 -40 -53 -96 -3 -92 29 -120 150 -132 89 -9
101 -18 101 -69 0 -66 -15 -79 -92 -80 -73 -1 -98 12 -98 49 0 25 -9 28 -46
18 -19 -5 -21 -10 -14 -40 15 -67 46 -82 167 -79 127 2 160 36 149 150 -8 82
-23 92 -151 110 -98 14 -95 12 -95 65 0 27 5 52 11 55 5 4 39 8 73 8 64 2 96
-11 96 -39 0 -16 18 -18 39 -5 9 6 11 18 6 41 -5 24 -16 35 -42 46 -42 18
-158 17 -201 -2z"/>
<path d="M14932 435 c-51 -22 -65 -67 -65 -210 0 -184 23 -216 161 -220 116
-4 156 18 168 91 6 39 4 42 -21 48 -32 8 -34 7 -41 -30 -3 -16 -11 -35 -18
-42 -18 -18 -114 -21 -148 -5 -26 13 -27 17 -30 101 -3 100 6 200 19 213 9 9
61 13 130 10 27 -1 34 -6 39 -28 13 -60 13 -60 45 -55 28 4 30 7 26 36 -6 43
-23 73 -50 88 -33 18 -176 20 -215 3z"/>
<path d="M15375 443 c-68 -17 -88 -65 -88 -208 0 -152 9 -187 56 -212 46 -23
185 -25 235 -3 56 25 67 59 66 210 -1 135 -13 178 -57 201 -22 13 -175 21
-212 12z m181 -69 c8 -10 12 -64 12 -150 0 -173 2 -171 -140 -165 -61 2 -63 7
-64 153 -1 73 2 142 6 153 4 11 20 23 36 26 47 9 138 -1 150 -17z"/>
<path d="M14000 224 l0 -214 38 0 38 0 -1 213 0 212 -37 1 -38 1 0 -213z"/>
<path d="M15757 432 c-3 -4 -5 -74 -4 -157 0 -231 17 -266 129 -270 55 -1 118
17 118 35 0 6 5 10 10 10 6 0 10 -9 10 -19 0 -22 16 -30 48 -22 l24 6 -1 200
c0 110 0 205 0 212 -1 6 -16 10 -38 10 l-38 -2 0 -174 c-1 -204 -1 -203 -100
-203 -80 0 -79 -2 -85 199 l-5 178 -32 2 c-18 2 -34 -1 -36 -5z"/>
</g>
</svg>
